<svg xmlns="http://www.w3.org/2000/svg" xmlns:xlink="http://www.w3.org/1999/xlink" width="500" zoomAndPan="magnify" viewBox="0 0 375 374.999991" height="500" preserveAspectRatio="xMidYMid meet" version="1.0"><defs><g/><clipPath id="e4ef079466"><path d="M 151 121.410156 L 213 121.410156 L 213 149 L 151 149 Z M 151 121.410156 " clip-rule="nonzero"/></clipPath><clipPath id="152a3d4d62"><path d="M 121.570312 160.832031 L 253.332031 160.832031 L 253.332031 203.601562 L 121.570312 203.601562 Z M 121.570312 160.832031 " clip-rule="nonzero"/></clipPath></defs><path fill="#1b3d6d" d="M 219.558594 140.746094 C 209.410156 143.496094 199.261719 146.246094 189.109375 148.996094 C 183.199219 158.492188 177.292969 167.988281 171.382812 177.484375 C 181.417969 177.527344 191.578125 175.589844 201.957031 170.136719 C 207.355469 161.800781 212.75 153.464844 218.144531 145.128906 C 224.054688 152.089844 229.964844 159.050781 235.875 166.011719 C 238.015625 166.4375 240.160156 166.871094 242.300781 167.300781 C 234.71875 158.449219 227.140625 149.597656 219.558594 140.746094 " fill-opacity="1" fill-rule="evenodd"/><g clip-path="url(#e4ef079466)"><path fill="#1b3d6d" d="M 212.234375 140.617188 L 183.585938 148.609375 L 166.882812 134.429688 L 155.835938 146.289062 L 151.335938 146.160156 L 164.699219 130.691406 L 178.445312 131.128906 L 178.445312 121.410156 L 185.898438 121.410156 L 185.898438 131.367188 L 201.058594 131.851562 L 212.234375 140.617188 " fill-opacity="1" fill-rule="evenodd"/></g><path fill="#1b3d6d" d="M 181.789062 156.730469 L 169.324219 176.453125 L 142.859375 149.640625 C 136.734375 155.570312 134.179688 158.050781 127.828125 164.207031 L 125.769531 162.273438 L 130.910156 156.855469 L 130.910156 141.390625 L 137.207031 141.390625 L 137.207031 150.214844 L 140.929688 146.289062 L 174.980469 149.898438 L 181.789062 156.730469 " fill-opacity="1" fill-rule="evenodd"/><g clip-path="url(#152a3d4d62)"><path fill="#38b6ff" d="M 203.5 203.132812 C 220.621094 205.410156 236.078125 199.285156 248.851562 185.863281 C 256.3125 178.023438 254.242188 171.691406 244.226562 169.492188 C 227.332031 165.78125 212.464844 171.898438 197.207031 176.839844 C 165.546875 187.082031 139.796875 181.195312 121.53125 160.855469 C 136.199219 184.289062 161.457031 193.386719 199.390625 184.699219 C 207.945312 182.742188 216.484375 179.765625 225.339844 180.320312 C 233.121094 180.804688 234.265625 185.484375 228.808594 191.273438 C 222.527344 197.945312 213.652344 201.371094 203.5 203.132812 " fill-opacity="1" fill-rule="evenodd"/></g><path fill="#38b6ff" d="M 208.640625 185.734375 C 178.847656 195.039062 149.96875 197.976562 126.796875 173.617188 C 149.988281 207.644531 178 204.03125 208.640625 185.734375 " fill-opacity="1" fill-rule="evenodd"/><path fill="#0f52a3" d="M 147.027344 161.523438 L 147.027344 162.664062 L 143.789062 162.664062 L 143.789062 157.691406 C 145.621094 158.003906 147.027344 159.601562 147.027344 161.523438 Z M 142.410156 157.703125 L 142.410156 162.664062 L 139.261719 162.664062 L 139.261719 161.523438 C 139.261719 159.632812 140.625 158.046875 142.410156 157.703125 Z M 147.027344 165.457031 L 147.027344 169.355469 L 143.789062 169.355469 L 143.789062 164.046875 L 147.027344 164.046875 Z M 142.410156 169.355469 L 139.261719 169.355469 L 139.261719 164.046875 L 142.410156 164.046875 L 142.410156 169.355469 " fill-opacity="1" fill-rule="evenodd"/><path fill="#0f52a3" d="M 166.355469 137.710938 L 166.355469 142.050781 L 163.417969 142.050781 L 163.410156 141.699219 L 163.410156 141.050781 C 163.410156 139.398438 164.683594 138.011719 166.355469 137.710938 Z M 170.671875 141.050781 L 170.671875 142.050781 L 167.644531 142.050781 L 167.644531 137.699219 C 169.355469 137.972656 170.671875 139.371094 170.671875 141.050781 Z M 170.671875 144.492188 L 170.53125 147.375 C 169.542969 147.375 168.589844 147.292969 167.644531 147.195312 L 167.644531 143.257812 L 170.671875 143.257812 Z M 166.355469 147.066406 C 165.421875 146.972656 164.476562 146.894531 163.496094 146.894531 L 163.4375 143.257812 L 166.355469 143.257812 L 166.355469 147.066406 " fill-opacity="1" fill-rule="evenodd"/><path fill="#0f52a3" d="M 223.316406 160.574219 L 223.316406 161.222656 L 223.308594 161.574219 L 220.367188 161.574219 L 220.367188 157.230469 C 222.039062 157.535156 223.316406 158.921875 223.316406 160.574219 Z M 219.082031 157.222656 L 219.082031 161.574219 L 216.054688 161.574219 L 216.054688 160.574219 C 216.054688 158.894531 217.371094 157.496094 219.082031 157.222656 Z M 223.230469 166.417969 C 222.246094 166.417969 221.304688 166.496094 220.367188 166.589844 L 220.367188 162.78125 L 223.289062 162.78125 Z M 219.082031 166.722656 C 218.136719 166.816406 217.183594 166.894531 216.195312 166.894531 L 216.054688 164.015625 L 216.054688 162.78125 L 219.082031 162.78125 L 219.082031 166.722656 " fill-opacity="1" fill-rule="evenodd"/><path fill="#1b3d6d" d="M 218.257812 148.054688 L 232.28125 165.644531 L 229.589844 165.355469 L 218.765625 151.484375 L 209.320312 168.636719 L 206.339844 169.589844 L 218.257812 148.054688 " fill-opacity="1" fill-rule="evenodd"/><g fill="#fad02c" fill-opacity="1"><g transform="translate(119.494127, 233.656302)"><g><path d="M 1.765625 0 L 1.765625 -14.046875 L 4.75 -14.046875 L 4.75 0 Z M 1.765625 0 "/></g></g></g><g fill="#fad02c" fill-opacity="1"><g transform="translate(130.390088, 233.656302)"><g><path d="M 14.21875 0 L 10.4375 0 L 4.328125 -10.625 L 4.25 -10.625 C 4.269531 -10.175781 4.289062 -9.726562 4.3125 -9.28125 C 4.332031 -8.832031 4.351562 -8.382812 4.375 -7.9375 C 4.394531 -7.5 4.410156 -7.054688 4.421875 -6.609375 L 4.421875 0 L 1.765625 0 L 1.765625 -14.046875 L 5.515625 -14.046875 L 11.625 -3.53125 L 11.6875 -3.53125 C 11.675781 -3.957031 11.660156 -4.382812 11.640625 -4.8125 C 11.617188 -5.25 11.597656 -5.679688 11.578125 -6.109375 C 11.566406 -6.535156 11.554688 -6.960938 11.546875 -7.390625 L 11.546875 -14.046875 L 14.21875 -14.046875 Z M 14.21875 0 "/></g></g></g><g fill="#fad02c" fill-opacity="1"><g transform="translate(150.76282, 233.656302)"><g><path d="M 7.734375 -11.765625 C 7.160156 -11.765625 6.65625 -11.65625 6.21875 -11.4375 C 5.78125 -11.21875 5.410156 -10.898438 5.109375 -10.484375 C 4.816406 -10.066406 4.59375 -9.5625 4.4375 -8.96875 C 4.28125 -8.382812 4.203125 -7.722656 4.203125 -6.984375 C 4.203125 -5.992188 4.328125 -5.144531 4.578125 -4.4375 C 4.828125 -3.738281 5.207031 -3.203125 5.71875 -2.828125 C 6.238281 -2.460938 6.910156 -2.28125 7.734375 -2.28125 C 8.304688 -2.28125 8.878906 -2.34375 9.453125 -2.46875 C 10.023438 -2.601562 10.644531 -2.789062 11.3125 -3.03125 L 11.3125 -0.53125 C 10.695312 -0.269531 10.085938 -0.0859375 9.484375 0.015625 C 8.878906 0.128906 8.203125 0.1875 7.453125 0.1875 C 6.003906 0.1875 4.8125 -0.109375 3.875 -0.703125 C 2.945312 -1.304688 2.257812 -2.144531 1.8125 -3.21875 C 1.363281 -4.300781 1.140625 -5.5625 1.140625 -7 C 1.140625 -8.0625 1.28125 -9.035156 1.5625 -9.921875 C 1.851562 -10.804688 2.273438 -11.570312 2.828125 -12.21875 C 3.390625 -12.863281 4.082031 -13.363281 4.90625 -13.71875 C 5.726562 -14.070312 6.671875 -14.25 7.734375 -14.25 C 8.429688 -14.25 9.128906 -14.160156 9.828125 -13.984375 C 10.535156 -13.804688 11.207031 -13.5625 11.84375 -13.25 L 10.890625 -10.828125 C 10.359375 -11.078125 9.828125 -11.296875 9.296875 -11.484375 C 8.765625 -11.671875 8.242188 -11.765625 7.734375 -11.765625 Z M 7.734375 -11.765625 "/></g></g></g><g fill="#fad02c" fill-opacity="1"><g transform="translate(167.678981, 233.656302)"><g><path d="M 14.515625 -7.046875 C 14.515625 -5.960938 14.378906 -4.972656 14.109375 -4.078125 C 13.835938 -3.191406 13.425781 -2.425781 12.875 -1.78125 C 12.332031 -1.144531 11.640625 -0.65625 10.796875 -0.3125 C 9.960938 0.0195312 8.972656 0.1875 7.828125 0.1875 C 6.679688 0.1875 5.6875 0.0195312 4.84375 -0.3125 C 4.007812 -0.65625 3.316406 -1.144531 2.765625 -1.78125 C 2.222656 -2.425781 1.816406 -3.191406 1.546875 -4.078125 C 1.273438 -4.972656 1.140625 -5.96875 1.140625 -7.0625 C 1.140625 -8.507812 1.378906 -9.773438 1.859375 -10.859375 C 2.335938 -11.941406 3.070312 -12.78125 4.0625 -13.375 C 5.050781 -13.96875 6.3125 -14.265625 7.84375 -14.265625 C 9.375 -14.265625 10.628906 -13.96875 11.609375 -13.375 C 12.585938 -12.78125 13.316406 -11.941406 13.796875 -10.859375 C 14.273438 -9.773438 14.515625 -8.503906 14.515625 -7.046875 Z M 4.265625 -7.046875 C 4.265625 -6.066406 4.382812 -5.222656 4.625 -4.515625 C 4.875 -3.804688 5.257812 -3.257812 5.78125 -2.875 C 6.3125 -2.5 6.992188 -2.3125 7.828125 -2.3125 C 8.671875 -2.3125 9.351562 -2.5 9.875 -2.875 C 10.40625 -3.257812 10.789062 -3.804688 11.03125 -4.515625 C 11.269531 -5.222656 11.390625 -6.066406 11.390625 -7.046875 C 11.390625 -8.515625 11.113281 -9.671875 10.5625 -10.515625 C 10.007812 -11.359375 9.101562 -11.78125 7.84375 -11.78125 C 7.007812 -11.78125 6.328125 -11.585938 5.796875 -11.203125 C 5.265625 -10.828125 4.875 -10.285156 4.625 -9.578125 C 4.382812 -8.867188 4.265625 -8.023438 4.265625 -7.046875 Z M 4.265625 -7.046875 "/></g></g></g><g fill="#fad02c" fill-opacity="1"><g transform="translate(187.715656, 233.656302)"><g><path d="M 14.21875 0 L 10.4375 0 L 4.328125 -10.625 L 4.25 -10.625 C 4.269531 -10.175781 4.289062 -9.726562 4.3125 -9.28125 C 4.332031 -8.832031 4.351562 -8.382812 4.375 -7.9375 C 4.394531 -7.5 4.410156 -7.054688 4.421875 -6.609375 L 4.421875 0 L 1.765625 0 L 1.765625 -14.046875 L 5.515625 -14.046875 L 11.625 -3.53125 L 11.6875 -3.53125 C 11.675781 -3.957031 11.660156 -4.382812 11.640625 -4.8125 C 11.617188 -5.25 11.597656 -5.679688 11.578125 -6.109375 C 11.566406 -6.535156 11.554688 -6.960938 11.546875 -7.390625 L 11.546875 -14.046875 L 14.21875 -14.046875 Z M 14.21875 0 "/></g></g></g><g fill="#fad02c" fill-opacity="1"><g transform="translate(208.088387, 233.656302)"><g><path d="M 10.0625 -3.90625 C 10.0625 -3.070312 9.859375 -2.347656 9.453125 -1.734375 C 9.046875 -1.117188 8.457031 -0.644531 7.6875 -0.3125 C 6.914062 0.0195312 5.976562 0.1875 4.875 0.1875 C 4.394531 0.1875 3.921875 0.15625 3.453125 0.09375 C 2.984375 0.03125 2.535156 -0.0625 2.109375 -0.1875 C 1.691406 -0.3125 1.289062 -0.46875 0.90625 -0.65625 L 0.90625 -3.421875 C 1.570312 -3.128906 2.257812 -2.863281 2.96875 -2.625 C 3.6875 -2.382812 4.398438 -2.265625 5.109375 -2.265625 C 5.597656 -2.265625 5.988281 -2.328125 6.28125 -2.453125 C 6.582031 -2.585938 6.800781 -2.765625 6.9375 -2.984375 C 7.070312 -3.210938 7.140625 -3.46875 7.140625 -3.75 C 7.140625 -4.101562 7.019531 -4.40625 6.78125 -4.65625 C 6.539062 -4.90625 6.210938 -5.140625 5.796875 -5.359375 C 5.390625 -5.578125 4.925781 -5.8125 4.40625 -6.0625 C 4.082031 -6.21875 3.726562 -6.40625 3.34375 -6.625 C 2.957031 -6.84375 2.59375 -7.113281 2.25 -7.4375 C 1.90625 -7.757812 1.617188 -8.144531 1.390625 -8.59375 C 1.171875 -9.050781 1.0625 -9.601562 1.0625 -10.25 C 1.0625 -11.082031 1.253906 -11.796875 1.640625 -12.390625 C 2.023438 -12.992188 2.570312 -13.453125 3.28125 -13.765625 C 4 -14.085938 4.847656 -14.25 5.828125 -14.25 C 6.554688 -14.25 7.25 -14.160156 7.90625 -13.984375 C 8.570312 -13.816406 9.265625 -13.570312 9.984375 -13.25 L 9.03125 -10.9375 C 8.382812 -11.195312 7.800781 -11.398438 7.28125 -11.546875 C 6.769531 -11.691406 6.25 -11.765625 5.71875 -11.765625 C 5.351562 -11.765625 5.035156 -11.703125 4.765625 -11.578125 C 4.503906 -11.460938 4.304688 -11.296875 4.171875 -11.078125 C 4.046875 -10.867188 3.984375 -10.625 3.984375 -10.34375 C 3.984375 -10.007812 4.078125 -9.726562 4.265625 -9.5 C 4.460938 -9.269531 4.757812 -9.050781 5.15625 -8.84375 C 5.550781 -8.632812 6.039062 -8.390625 6.625 -8.109375 C 7.34375 -7.765625 7.957031 -7.410156 8.46875 -7.046875 C 8.976562 -6.679688 9.367188 -6.25 9.640625 -5.75 C 9.921875 -5.25 10.0625 -4.632812 10.0625 -3.90625 Z M 10.0625 -3.90625 "/></g></g></g><g fill="#fad02c" fill-opacity="1"><g transform="translate(223.305069, 233.656302)"><g><path d="M 10.359375 0 L 9.34375 -3.34375 L 4.21875 -3.34375 L 3.203125 0 L 0 0 L 4.953125 -14.09375 L 8.59375 -14.09375 L 13.578125 0 Z M 8.640625 -5.84375 L 7.609375 -9.109375 C 7.546875 -9.328125 7.460938 -9.601562 7.359375 -9.9375 C 7.253906 -10.28125 7.148438 -10.628906 7.046875 -10.984375 C 6.941406 -11.347656 6.859375 -11.660156 6.796875 -11.921875 C 6.722656 -11.660156 6.628906 -11.332031 6.515625 -10.9375 C 6.410156 -10.550781 6.304688 -10.1875 6.203125 -9.84375 C 6.097656 -9.5 6.023438 -9.253906 5.984375 -9.109375 L 4.96875 -5.84375 Z M 8.640625 -5.84375 "/></g></g></g><g fill="#fad02c" fill-opacity="1"><g transform="translate(241.258204, 233.656302)"><g><path d="M 7.09375 -7.890625 L 12.671875 -7.890625 L 12.671875 -0.609375 C 11.929688 -0.359375 11.164062 -0.160156 10.375 -0.015625 C 9.582031 0.117188 8.679688 0.1875 7.671875 0.1875 C 6.273438 0.1875 5.085938 -0.0820312 4.109375 -0.625 C 3.140625 -1.175781 2.398438 -1.988281 1.890625 -3.0625 C 1.390625 -4.144531 1.140625 -5.472656 1.140625 -7.046875 C 1.140625 -8.515625 1.421875 -9.785156 1.984375 -10.859375 C 2.554688 -11.941406 3.390625 -12.773438 4.484375 -13.359375 C 5.578125 -13.953125 6.910156 -14.25 8.484375 -14.25 C 9.222656 -14.25 9.953125 -14.164062 10.671875 -14 C 11.398438 -13.84375 12.0625 -13.632812 12.65625 -13.375 L 11.65625 -11 C 11.226562 -11.21875 10.738281 -11.398438 10.1875 -11.546875 C 9.632812 -11.691406 9.0625 -11.765625 8.46875 -11.765625 C 7.601562 -11.765625 6.847656 -11.566406 6.203125 -11.171875 C 5.566406 -10.773438 5.070312 -10.21875 4.71875 -9.5 C 4.375 -8.789062 4.203125 -7.953125 4.203125 -6.984375 C 4.203125 -6.066406 4.328125 -5.253906 4.578125 -4.546875 C 4.828125 -3.835938 5.21875 -3.28125 5.75 -2.875 C 6.289062 -2.476562 6.992188 -2.28125 7.859375 -2.28125 C 8.285156 -2.28125 8.644531 -2.300781 8.9375 -2.34375 C 9.226562 -2.382812 9.503906 -2.429688 9.765625 -2.484375 L 9.765625 -5.40625 L 7.09375 -5.40625 Z M 7.09375 -7.890625 "/></g></g></g></svg>